  0
SECTION
  2
HEADER
  9
$ACADVER
  1
AC1009
  9
$INSBASE
 10
0.0
 20
0.0
 30
0.0
  9
$EXTMIN
 10
0.0
 20
0.0
 30
0.0
  9
$EXTMAX
 10
0.0
 20
0.0
 30
0.0
  0
ENDSEC
  0
SECTION
  2
TABLES
  0
TABLE
  2
VPORT
 70
0
  0
ENDTAB
  0
TABLE
  2
LTYPE
 70
1
  0
LTYPE
  2
CONTINUOUS
 70
0
  3
Solid line
 72
65
 73
0
 40
0.0
  0
ENDTAB
  0
TABLE
  2
LAYER
 70
1
  0
LAYER
  2
0
 70
64
 62
7
  6
continuous
  0
ENDTAB
  0
TABLE
  2
STYLE
 70
1
  0
STYLE
  2
STANDARD
 70
0
 40
0
 41
1.0
 50
0.0
 71
0
 42
1
 3
ARIAL.TTF
 4

  0
ENDTAB
  0
TABLE
  2
VIEW
 70
0
  0
ENDTAB
  0
ENDSEC
  0
SECTION
  2
BLOCKS
  0
ENDSEC
  0
SECTION
  2
ENTITIES
  0
POLYLINE
  8
0
 62
0
 70
0
 66
1
 10
0.0
 20
0.0
 30
0.0
  0
VERTEX
  8
0
 10
137.58800000000002
 20
-113.72500000000001
 30
0.0
  0
VERTEX
  8
0
 10
133.38800000000003
 20
-113.72500000000001
 30
0.0
  0
VERTEX
  8
0
 10
129.18800000000002
 20
-113.72500000000001
 30
0.0
  0
SEQEND
  8
0
  0
POLYLINE
  8
0
 62
0
 70
0
 66
1
 10
0.0
 20
0.0
 30
0.0
  0
VERTEX
  8
0
 10
133.388
 20
-117.92500000000001
 30
0.0
  0
VERTEX
  8
0
 10
133.388
 20
-113.72500000000001
 30
0.0
  0
VERTEX
  8
0
 10
133.388
 20
-109.525
 30
0.0
  0
SEQEND
  8
0
  0
POLYLINE
  8
0
 62
0
 70
0
 66
1
 10
0.0
 20
0.0
 30
0.0
  0
VERTEX
  8
0
 10
47.7
 20
-77.0
 30
0.0
  0
VERTEX
  8
0
 10
43.5
 20
-77.0
 30
0.0
  0
VERTEX
  8
0
 10
39.300000000000004
 20
-77.0
 30
0.0
  0
SEQEND
  8
0
  0
POLYLINE
  8
0
 62
0
 70
0
 66
1
 10
0.0
 20
0.0
 30
0.0
  0
VERTEX
  8
0
 10
43.5
 20
-81.2
 30
0.0
  0
VERTEX
  8
0
 10
43.5
 20
-77.0
 30
0.0
  0
VERTEX
  8
0
 10
43.5
 20
-72.8
 30
0.0
  0
SEQEND
  8
0
  0
POLYLINE
  8
0
 62
0
 70
0
 66
1
 10
0.0
 20
0.0
 30
0.0
  0
VERTEX
  8
0
 10
257.7
 20
-77.0
 30
0.0
  0
VERTEX
  8
0
 10
253.5
 20
-77.0
 30
0.0
  0
VERTEX
  8
0
 10
249.3
 20
-77.0
 30
0.0
  0
SEQEND
  8
0
  0
POLYLINE
  8
0
 62
0
 70
0
 66
1
 10
0.0
 20
0.0
 30
0.0
  0
VERTEX
  8
0
 10
253.5
 20
-81.2
 30
0.0
  0
VERTEX
  8
0
 10
253.5
 20
-77.0
 30
0.0
  0
VERTEX
  8
0
 10
253.5
 20
-72.8
 30
0.0
  0
SEQEND
  8
0
  0
POLYLINE
  8
0
 62
0
 70
0
 66
1
 10
0.0
 20
0.0
 30
0.0
  0
VERTEX
  8
0
 10
167.812
 20
-113.72500000000001
 30
0.0
  0
VERTEX
  8
0
 10
163.61200000000002
 20
-113.72500000000001
 30
0.0
  0
VERTEX
  8
0
 10
159.412
 20
-113.72500000000001
 30
0.0
  0
SEQEND
  8
0
  0
POLYLINE
  8
0
 62
0
 70
0
 66
1
 10
0.0
 20
0.0
 30
0.0
  0
VERTEX
  8
0
 10
163.612
 20
-117.92500000000001
 30
0.0
  0
VERTEX
  8
0
 10
163.612
 20
-113.72500000000001
 30
0.0
  0
VERTEX
  8
0
 10
163.612
 20
-109.525
 30
0.0
  0
SEQEND
  8
0
  0
POLYLINE
  8
0
 62
0
 70
0
 66
1
 10
0.0
 20
0.0
 30
0.0
  0
VERTEX
  8
0
 10
152.70000000000002
 20
-105.0
 30
0.0
  0
VERTEX
  8
0
 10
148.5
 20
-105.0
 30
0.0
  0
VERTEX
  8
0
 10
144.3
 20
-105.0
 30
0.0
  0
SEQEND
  8
0
  0
POLYLINE
  8
0
 62
0
 70
0
 66
1
 10
0.0
 20
0.0
 30
0.0
  0
VERTEX
  8
0
 10
148.5
 20
-109.2
 30
0.0
  0
VERTEX
  8
0
 10
148.5
 20
-105.0
 30
0.0
  0
VERTEX
  8
0
 10
148.5
 20
-100.80000000000001
 30
0.0
  0
SEQEND
  8
0
  0
POLYLINE
  8
0
 62
0
 70
0
 66
1
 10
0.0
 20
0.0
 30
0.0
  0
VERTEX
  8
0
 10
152.70000000000002
 20
-87.55000000000001
 30
0.0
  0
VERTEX
  8
0
 10
148.5
 20
-87.55000000000001
 30
0.0
  0
VERTEX
  8
0
 10
144.3
 20
-87.55000000000001
 30
0.0
  0
SEQEND
  8
0
  0
POLYLINE
  8
0
 62
0
 70
0
 66
1
 10
0.0
 20
0.0
 30
0.0
  0
VERTEX
  8
0
 10
148.5
 20
-91.75
 30
0.0
  0
VERTEX
  8
0
 10
148.5
 20
-87.55000000000001
 30
0.0
  0
VERTEX
  8
0
 10
148.5
 20
-83.35000000000001
 30
0.0
  0
SEQEND
  8
0
  0
POLYLINE
  8
0
 62
0
 70
0
 66
1
 10
0.0
 20
0.0
 30
0.0
  0
VERTEX
  8
0
 10
258.2
 20
-120.5
 30
0.0
  0
VERTEX
  8
0
 10
254.0
 20
-120.5
 30
0.0
  0
VERTEX
  8
0
 10
249.8
 20
-120.5
 30
0.0
  0
SEQEND
  8
0
  0
POLYLINE
  8
0
 62
0
 70
0
 66
1
 10
0.0
 20
0.0
 30
0.0
  0
VERTEX
  8
0
 10
227.20000000000002
 20
-120.5
 30
0.0
  0
VERTEX
  8
0
 10
223.0
 20
-120.5
 30
0.0
  0
VERTEX
  8
0
 10
218.8
 20
-120.5
 30
0.0
  0
SEQEND
  8
0
  0
POLYLINE
  8
0
 62
0
 70
0
 66
1
 10
0.0
 20
0.0
 30
0.0
  0
VERTEX
  8
0
 10
254.0
 20
-124.7
 30
0.0
  0
VERTEX
  8
0
 10
254.0
 20
-120.5
 30
0.0
  0
VERTEX
  8
0
 10
254.0
 20
-116.30000000000001
 30
0.0
  0
SEQEND
  8
0
  0
POLYLINE
  8
0
 62
0
 70
0
 66
1
 10
0.0
 20
0.0
 30
0.0
  0
VERTEX
  8
0
 10
223.0
 20
-124.7
 30
0.0
  0
VERTEX
  8
0
 10
223.0
 20
-120.5
 30
0.0
  0
VERTEX
  8
0
 10
223.0
 20
-116.30000000000001
 30
0.0
  0
SEQEND
  8
0
  0
POLYLINE
  8
0
 62
0
 70
0
 66
1
 10
0.0
 20
0.0
 30
0.0
  0
VERTEX
  8
0
 10
258.2
 20
-89.5
 30
0.0
  0
VERTEX
  8
0
 10
254.0
 20
-89.5
 30
0.0
  0
VERTEX
  8
0
 10
249.8
 20
-89.5
 30
0.0
  0
SEQEND
  8
0
  0
POLYLINE
  8
0
 62
0
 70
0
 66
1
 10
0.0
 20
0.0
 30
0.0
  0
VERTEX
  8
0
 10
254.0
 20
-93.7
 30
0.0
  0
VERTEX
  8
0
 10
254.0
 20
-89.5
 30
0.0
  0
VERTEX
  8
0
 10
254.0
 20
-85.30000000000001
 30
0.0
  0
SEQEND
  8
0
  0
POLYLINE
  8
0
 62
0
 70
0
 66
1
 10
0.0
 20
0.0
 30
0.0
  0
VERTEX
  8
0
 10
227.20000000000002
 20
-89.5
 30
0.0
  0
VERTEX
  8
0
 10
223.0
 20
-89.5
 30
0.0
  0
VERTEX
  8
0
 10
218.8
 20
-89.5
 30
0.0
  0
SEQEND
  8
0
  0
POLYLINE
  8
0
 62
0
 70
0
 66
1
 10
0.0
 20
0.0
 30
0.0
  0
VERTEX
  8
0
 10
223.0
 20
-93.7
 30
0.0
  0
VERTEX
  8
0
 10
223.0
 20
-89.5
 30
0.0
  0
VERTEX
  8
0
 10
223.0
 20
-85.30000000000001
 30
0.0
  0
SEQEND
  8
0
  0
POLYLINE
  8
0
 62
0
 70
0
 66
1
 10
0.0
 20
0.0
 30
0.0
  0
VERTEX
  8
0
 10
242.70000000000002
 20
-105.0
 30
0.0
  0
VERTEX
  8
0
 10
238.5
 20
-105.0
 30
0.0
  0
VERTEX
  8
0
 10
234.3
 20
-105.0
 30
0.0
  0
SEQEND
  8
0
  0
POLYLINE
  8
0
 62
0
 70
1
 66
1
 10
0.0
 20
0.0
 30
0.0
  0
VERTEX
  8
0
 10
47.5
 20
-133.0
 30
0.0
  0
VERTEX
  8
0
 10
46.328375
 20
-135.8284125
 30
0.0
  0
VERTEX
  8
0
 10
43.5
 20
-137.0
 30
0.0
  0
VERTEX
  8
0
 10
40.671625000000006
 20
-135.8284125
 30
0.0
  0
VERTEX
  8
0
 10
39.5
 20
-133.0
 30
0.0
  0
VERTEX
  8
0
 10
40.671625000000006
 20
-130.17158750000002
 30
0.0
  0
VERTEX
  8
0
 10
43.5
 20
-129.0
 30
0.0
  0
VERTEX
  8
0
 10
46.328375
 20
-130.17158750000002
 30
0.0
  0
SEQEND
  8
0
  0
POLYLINE
  8
0
 62
0
 70
0
 66
1
 10
0.0
 20
0.0
 30
0.0
  0
VERTEX
  8
0
 10
238.5
 20
-109.2
 30
0.0
  0
VERTEX
  8
0
 10
238.5
 20
-105.0
 30
0.0
  0
VERTEX
  8
0
 10
238.5
 20
-100.80000000000001
 30
0.0
  0
SEQEND
  8
0
  0
POLYLINE
  8
0
 62
0
 70
1
 66
1
 10
0.0
 20
0.0
 30
0.0
  0
VERTEX
  8
0
 10
257.5
 20
-133.0
 30
0.0
  0
VERTEX
  8
0
 10
256.328375
 20
-135.8284125
 30
0.0
  0
VERTEX
  8
0
 10
253.5
 20
-137.0
 30
0.0
  0
VERTEX
  8
0
 10
250.671625
 20
-135.8284125
 30
0.0
  0
VERTEX
  8
0
 10
249.5
 20
-133.0
 30
0.0
  0
VERTEX
  8
0
 10
250.671625
 20
-130.17158750000002
 30
0.0
  0
VERTEX
  8
0
 10
253.5
 20
-129.0
 30
0.0
  0
VERTEX
  8
0
 10
256.328375
 20
-130.17158750000002
 30
0.0
  0
SEQEND
  8
0
  0
POLYLINE
  8
0
 62
0
 70
1
 66
1
 10
0.0
 20
0.0
 30
0.0
  0
VERTEX
  8
0
 10
135.9879
 20
-113.72500000000001
 30
0.0
  0
VERTEX
  8
0
 10
133.3879
 20
-116.325
 30
0.0
  0
VERTEX
  8
0
 10
130.7879
 20
-113.72500000000001
 30
0.0
  0
VERTEX
  8
0
 10
133.3879
 20
-111.125
 30
0.0
  0
SEQEND
  8
0
  0
POLYLINE
  8
0
 62
0
 70
1
 66
1
 10
0.0
 20
0.0
 30
0.0
  0
VERTEX
  8
0
 10
47.5
 20
-77.0
 30
0.0
  0
VERTEX
  8
0
 10
46.328375
 20
-79.8284125
 30
0.0
  0
VERTEX
  8
0
 10
43.5
 20
-81.0
 30
0.0
  0
VERTEX
  8
0
 10
40.671625000000006
 20
-79.8284125
 30
0.0
  0
VERTEX
  8
0
 10
39.5
 20
-77.0
 30
0.0
  0
VERTEX
  8
0
 10
40.671625000000006
 20
-74.1715875
 30
0.0
  0
VERTEX
  8
0
 10
43.5
 20
-73.0
 30
0.0
  0
VERTEX
  8
0
 10
46.328375
 20
-74.1715875
 30
0.0
  0
SEQEND
  8
0
  0
POLYLINE
  8
0
 62
0
 70
1
 66
1
 10
0.0
 20
0.0
 30
0.0
  0
VERTEX
  8
0
 10
166.21210000000002
 20
-113.72500000000001
 30
0.0
  0
VERTEX
  8
0
 10
163.61210000000003
 20
-116.325
 30
0.0
  0
VERTEX
  8
0
 10
161.01210000000003
 20
-113.72500000000001
 30
0.0
  0
VERTEX
  8
0
 10
163.61210000000003
 20
-111.125
 30
0.0
  0
SEQEND
  8
0
  0
POLYLINE
  8
0
 62
0
 70
1
 66
1
 10
0.0
 20
0.0
 30
0.0
  0
VERTEX
  8
0
 10
257.5
 20
-77.0
 30
0.0
  0
VERTEX
  8
0
 10
256.328375
 20
-79.8284125
 30
0.0
  0
VERTEX
  8
0
 10
253.5
 20
-81.0
 30
0.0
  0
VERTEX
  8
0
 10
250.671625
 20
-79.8284125
 30
0.0
  0
VERTEX
  8
0
 10
249.5
 20
-77.0
 30
0.0
  0
VERTEX
  8
0
 10
250.671625
 20
-74.1715875
 30
0.0
  0
VERTEX
  8
0
 10
253.5
 20
-73.0
 30
0.0
  0
VERTEX
  8
0
 10
256.328375
 20
-74.1715875
 30
0.0
  0
SEQEND
  8
0
  0
POLYLINE
  8
0
 62
0
 70
1
 66
1
 10
0.0
 20
0.0
 30
0.0
  0
VERTEX
  8
0
 10
161.0
 20
-105.0
 30
0.0
  0
VERTEX
  8
0
 10
160.017688125
 20
-109.865564375
 30
0.0
  0
VERTEX
  8
0
 10
157.338835
 20
-113.838835
 30
0.0
  0
VERTEX
  8
0
 10
153.365564375
 20
-116.517688125
 30
0.0
  0
VERTEX
  8
0
 10
148.5
 20
-117.5
 30
0.0
  0
VERTEX
  8
0
 10
143.634435625
 20
-116.517688125
 30
0.0
  0
VERTEX
  8
0
 10
139.661165
 20
-113.838835
 30
0.0
  0
VERTEX
  8
0
 10
136.982311875
 20
-109.865564375
 30
0.0
  0
VERTEX
  8
0
 10
136.0
 20
-105.0
 30
0.0
  0
VERTEX
  8
0
 10
136.982311875
 20
-100.134435625
 30
0.0
  0
VERTEX
  8
0
 10
139.661165
 20
-96.161165
 30
0.0
  0
VERTEX
  8
0
 10
143.634435625
 20
-93.482311875
 30
0.0
  0
VERTEX
  8
0
 10
148.5
 20
-92.5
 30
0.0
  0
VERTEX
  8
0
 10
153.365564375
 20
-93.482311875
 30
0.0
  0
VERTEX
  8
0
 10
157.338835
 20
-96.161165
 30
0.0
  0
VERTEX
  8
0
 10
160.017688125
 20
-100.134435625
 30
0.0
  0
SEQEND
  8
0
  0
POLYLINE
  8
0
 62
0
 70
1
 66
1
 10
0.0
 20
0.0
 30
0.0
  0
VERTEX
  8
0
 10
255.5
 20
-120.5
 30
0.0
  0
VERTEX
  8
0
 10
254.0
 20
-122.0
 30
0.0
  0
VERTEX
  8
0
 10
252.5
 20
-120.5
 30
0.0
  0
VERTEX
  8
0
 10
254.0
 20
-119.0
 30
0.0
  0
SEQEND
  8
0
  0
POLYLINE
  8
0
 62
0
 70
1
 66
1
 10
0.0
 20
0.0
 30
0.0
  0
VERTEX
  8
0
 10
151.1
 20
-87.55000000000001
 30
0.0
  0
VERTEX
  8
0
 10
148.5
 20
-90.15
 30
0.0
  0
VERTEX
  8
0
 10
145.9
 20
-87.55000000000001
 30
0.0
  0
VERTEX
  8
0
 10
148.5
 20
-84.95
 30
0.0
  0
SEQEND
  8
0
  0
POLYLINE
  8
0
 62
0
 70
1
 66
1
 10
0.0
 20
0.0
 30
0.0
  0
VERTEX
  8
0
 10
224.5
 20
-89.5
 30
0.0
  0
VERTEX
  8
0
 10
223.0
 20
-91.0
 30
0.0
  0
VERTEX
  8
0
 10
221.5
 20
-89.5
 30
0.0
  0
VERTEX
  8
0
 10
223.0
 20
-88.0
 30
0.0
  0
SEQEND
  8
0
  0
POLYLINE
  8
0
 62
0
 70
1
 66
1
 10
0.0
 20
0.0
 30
0.0
  0
VERTEX
  8
0
 10
255.5
 20
-89.5
 30
0.0
  0
VERTEX
  8
0
 10
254.0
 20
-91.0
 30
0.0
  0
VERTEX
  8
0
 10
252.5
 20
-89.5
 30
0.0
  0
VERTEX
  8
0
 10
254.0
 20
-88.0
 30
0.0
  0
SEQEND
  8
0
  0
POLYLINE
  8
0
 62
0
 70
1
 66
1
 10
0.0
 20
0.0
 30
0.0
  0
VERTEX
  8
0
 10
224.5
 20
-120.5
 30
0.0
  0
VERTEX
  8
0
 10
223.0
 20
-122.0
 30
0.0
  0
VERTEX
  8
0
 10
221.5
 20
-120.5
 30
0.0
  0
VERTEX
  8
0
 10
223.0
 20
-119.0
 30
0.0
  0
SEQEND
  8
0
  0
POLYLINE
  8
0
 62
0
 70
0
 66
1
 10
0.0
 20
0.0
 30
0.0
  0
VERTEX
  8
0
 10
33.5
 20
-70.0
 30
0.0
  0
VERTEX
  8
0
 10
33.5
 20
-75.0
 30
0.0
  0
VERTEX
  8
0
 10
33.5
 20
-80.0
 30
0.0
  0
VERTEX
  8
0
 10
33.5
 20
-85.0
 30
0.0
  0
VERTEX
  8
0
 10
33.5
 20
-90.0
 30
0.0
  0
VERTEX
  8
0
 10
33.5
 20
-95.0
 30
0.0
  0
VERTEX
  8
0
 10
33.5
 20
-100.0
 30
0.0
  0
VERTEX
  8
0
 10
33.5
 20
-105.0
 30
0.0
  0
VERTEX
  8
0
 10
33.5
 20
-110.0
 30
0.0
  0
VERTEX
  8
0
 10
33.5
 20
-115.0
 30
0.0
  0
VERTEX
  8
0
 10
33.5
 20
-120.0
 30
0.0
  0
VERTEX
  8
0
 10
33.5
 20
-125.0
 30
0.0
  0
VERTEX
  8
0
 10
33.5
 20
-130.0
 30
0.0
  0
VERTEX
  8
0
 10
33.5
 20
-135.0
 30
0.0
  0
VERTEX
  8
0
 10
33.5
 20
-140.0
 30
0.0
  0
SEQEND
  8
0
  0
POLYLINE
  8
0
 62
0
 70
1
 66
1
 10
0.0
 20
0.0
 30
0.0
  0
VERTEX
  8
0
 10
253.5
 20
-105.0
 30
0.0
  0
VERTEX
  8
0
 10
252.7352928
 20
-109.74115968
 30
0.0
  0
VERTEX
  8
0
 10
250.6058784
 20
-113.85880464
 30
0.0
  0
VERTEX
  8
0
 10
247.3588176
 20
-117.10586976
 30
0.0
  0
VERTEX
  8
0
 10
243.2411712
 20
-119.23528992
 30
0.0
  0
VERTEX
  8
0
 10
238.5
 20
-120.0
 30
0.0
  0
VERTEX
  8
0
 10
233.7588288
 20
-119.23528992
 30
0.0
  0
VERTEX
  8
0
 10
229.64118240000002
 20
-117.10586975999999
 30
0.0
  0
VERTEX
  8
0
 10
226.3941216
 20
-113.85880463999999
 30
0.0
  0
VERTEX
  8
0
 10
224.2647072
 20
-109.74115968
 30
0.0
  0
VERTEX
  8
0
 10
223.5
 20
-105.0
 30
0.0
  0
VERTEX
  8
0
 10
224.2647072
 20
-100.25884032
 30
0.0
  0
VERTEX
  8
0
 10
226.3941216
 20
-96.14119536
 30
0.0
  0
VERTEX
  8
0
 10
229.64118240000002
 20
-92.89413024
 30
0.0
  0
VERTEX
  8
0
 10
233.7588288
 20
-90.76471008
 30
0.0
  0
VERTEX
  8
0
 10
238.5
 20
-90.0
 30
0.0
  0
VERTEX
  8
0
 10
243.2411712
 20
-90.76471008
 30
0.0
  0
VERTEX
  8
0
 10
247.3588176
 20
-92.89413024000001
 30
0.0
  0
VERTEX
  8
0
 10
250.6058784
 20
-96.14119536000001
 30
0.0
  0
VERTEX
  8
0
 10
252.7352928
 20
-100.25884032
 30
0.0
  0
SEQEND
  8
0
  0
POLYLINE
  8
0
 62
0
 70
0
 66
1
 10
0.0
 20
0.0
 30
0.0
  0
VERTEX
  8
0
 10
263.5
 20
-70.0
 30
0.0
  0
VERTEX
  8
0
 10
258.5
 20
-70.0
 30
0.0
  0
VERTEX
  8
0
 10
253.5
 20
-70.0
 30
0.0
  0
VERTEX
  8
0
 10
248.5
 20
-70.0
 30
0.0
  0
VERTEX
  8
0
 10
243.5
 20
-70.0
 30
0.0
  0
VERTEX
  8
0
 10
238.5
 20
-70.0
 30
0.0
  0
VERTEX
  8
0
 10
233.5
 20
-70.0
 30
0.0
  0
VERTEX
  8
0
 10
228.5
 20
-70.0
 30
0.0
  0
VERTEX
  8
0
 10
223.5
 20
-70.0
 30
0.0
  0
VERTEX
  8
0
 10
218.5
 20
-70.0
 30
0.0
  0
VERTEX
  8
0
 10
213.5
 20
-70.0
 30
0.0
  0
VERTEX
  8
0
 10
208.5
 20
-70.0
 30
0.0
  0
VERTEX
  8
0
 10
203.5
 20
-70.0
 30
0.0
  0
VERTEX
  8
0
 10
198.5
 20
-70.0
 30
0.0
  0
VERTEX
  8
0
 10
193.5
 20
-70.0
 30
0.0
  0
VERTEX
  8
0
 10
188.5
 20
-70.0
 30
0.0
  0
VERTEX
  8
0
 10
183.5
 20
-70.0
 30
0.0
  0
VERTEX
  8
0
 10
178.5
 20
-70.0
 30
0.0
  0
VERTEX
  8
0
 10
173.5
 20
-70.0
 30
0.0
  0
VERTEX
  8
0
 10
168.5
 20
-70.0
 30
0.0
  0
VERTEX
  8
0
 10
163.5
 20
-70.0
 30
0.0
  0
VERTEX
  8
0
 10
158.5
 20
-70.0
 30
0.0
  0
VERTEX
  8
0
 10
153.5
 20
-70.0
 30
0.0
  0
VERTEX
  8
0
 10
148.5
 20
-70.0
 30
0.0
  0
VERTEX
  8
0
 10
143.5
 20
-70.0
 30
0.0
  0
VERTEX
  8
0
 10
138.5
 20
-70.0
 30
0.0
  0
VERTEX
  8
0
 10
133.5
 20
-70.0
 30
0.0
  0
VERTEX
  8
0
 10
128.5
 20
-70.0
 30
0.0
  0
VERTEX
  8
0
 10
123.5
 20
-70.0
 30
0.0
  0
VERTEX
  8
0
 10
118.5
 20
-70.0
 30
0.0
  0
VERTEX
  8
0
 10
113.5
 20
-70.0
 30
0.0
  0
VERTEX
  8
0
 10
108.5
 20
-70.0
 30
0.0
  0
VERTEX
  8
0
 10
103.5
 20
-70.0
 30
0.0
  0
VERTEX
  8
0
 10
98.5
 20
-70.0
 30
0.0
  0
VERTEX
  8
0
 10
93.5
 20
-70.0
 30
0.0
  0
VERTEX
  8
0
 10
88.5
 20
-70.0
 30
0.0
  0
VERTEX
  8
0
 10
83.5
 20
-70.0
 30
0.0
  0
VERTEX
  8
0
 10
78.5
 20
-70.0
 30
0.0
  0
VERTEX
  8
0
 10
73.5
 20
-70.0
 30
0.0
  0
VERTEX
  8
0
 10
68.5
 20
-70.0
 30
0.0
  0
VERTEX
  8
0
 10
63.5
 20
-70.0
 30
0.0
  0
VERTEX
  8
0
 10
58.5
 20
-70.0
 30
0.0
  0
VERTEX
  8
0
 10
53.5
 20
-70.0
 30
0.0
  0
VERTEX
  8
0
 10
48.5
 20
-70.0
 30
0.0
  0
VERTEX
  8
0
 10
43.5
 20
-70.0
 30
0.0
  0
VERTEX
  8
0
 10
38.5
 20
-70.0
 30
0.0
  0
VERTEX
  8
0
 10
33.5
 20
-70.0
 30
0.0
  0
SEQEND
  8
0
  0
POLYLINE
  8
0
 62
0
 70
0
 66
1
 10
0.0
 20
0.0
 30
0.0
  0
VERTEX
  8
0
 10
263.5
 20
-140.0
 30
0.0
  0
VERTEX
  8
0
 10
263.5
 20
-135.0
 30
0.0
  0
VERTEX
  8
0
 10
263.5
 20
-130.0
 30
0.0
  0
VERTEX
  8
0
 10
263.5
 20
-125.0
 30
0.0
  0
VERTEX
  8
0
 10
263.5
 20
-120.0
 30
0.0
  0
VERTEX
  8
0
 10
263.5
 20
-115.0
 30
0.0
  0
VERTEX
  8
0
 10
263.5
 20
-110.0
 30
0.0
  0
VERTEX
  8
0
 10
263.5
 20
-105.0
 30
0.0
  0
VERTEX
  8
0
 10
263.5
 20
-100.0
 30
0.0
  0
VERTEX
  8
0
 10
263.5
 20
-95.0
 30
0.0
  0
VERTEX
  8
0
 10
263.5
 20
-90.0
 30
0.0
  0
VERTEX
  8
0
 10
263.5
 20
-85.0
 30
0.0
  0
VERTEX
  8
0
 10
263.5
 20
-80.0
 30
0.0
  0
VERTEX
  8
0
 10
263.5
 20
-75.0
 30
0.0
  0
VERTEX
  8
0
 10
263.5
 20
-70.0
 30
0.0
  0
SEQEND
  8
0
  0
POLYLINE
  8
0
 62
0
 70
1
 66
1
 10
0.0
 20
0.0
 30
0.0
  0
VERTEX
  8
0
 10
255.5
 20
-89.5
 30
0.0
  0
VERTEX
  8
0
 10
254.0
 20
-91.0
 30
0.0
  0
VERTEX
  8
0
 10
252.5
 20
-89.5
 30
0.0
  0
VERTEX
  8
0
 10
254.0
 20
-88.0
 30
0.0
  0
SEQEND
  8
0
  0
POLYLINE
  8
0
 62
0
 70
0
 66
1
 10
0.0
 20
0.0
 30
0.0
  0
VERTEX
  8
0
 10
33.5
 20
-140.0
 30
0.0
  0
VERTEX
  8
0
 10
38.5
 20
-140.0
 30
0.0
  0
VERTEX
  8
0
 10
43.5
 20
-140.0
 30
0.0
  0
VERTEX
  8
0
 10
48.5
 20
-140.0
 30
0.0
  0
VERTEX
  8
0
 10
53.5
 20
-140.0
 30
0.0
  0
VERTEX
  8
0
 10
58.5
 20
-140.0
 30
0.0
  0
VERTEX
  8
0
 10
63.5
 20
-140.0
 30
0.0
  0
VERTEX
  8
0
 10
68.5
 20
-140.0
 30
0.0
  0
VERTEX
  8
0
 10
73.5
 20
-140.0
 30
0.0
  0
VERTEX
  8
0
 10
78.5
 20
-140.0
 30
0.0
  0
VERTEX
  8
0
 10
83.5
 20
-140.0
 30
0.0
  0
VERTEX
  8
0
 10
88.5
 20
-140.0
 30
0.0
  0
VERTEX
  8
0
 10
93.5
 20
-140.0
 30
0.0
  0
VERTEX
  8
0
 10
98.5
 20
-140.0
 30
0.0
  0
VERTEX
  8
0
 10
103.5
 20
-140.0
 30
0.0
  0
VERTEX
  8
0
 10
108.5
 20
-140.0
 30
0.0
  0
VERTEX
  8
0
 10
113.5
 20
-140.0
 30
0.0
  0
VERTEX
  8
0
 10
118.5
 20
-140.0
 30
0.0
  0
VERTEX
  8
0
 10
123.5
 20
-140.0
 30
0.0
  0
VERTEX
  8
0
 10
128.5
 20
-140.0
 30
0.0
  0
VERTEX
  8
0
 10
133.5
 20
-140.0
 30
0.0
  0
VERTEX
  8
0
 10
138.5
 20
-140.0
 30
0.0
  0
VERTEX
  8
0
 10
143.5
 20
-140.0
 30
0.0
  0
VERTEX
  8
0
 10
148.5
 20
-140.0
 30
0.0
  0
VERTEX
  8
0
 10
153.5
 20
-140.0
 30
0.0
  0
VERTEX
  8
0
 10
158.5
 20
-140.0
 30
0.0
  0
VERTEX
  8
0
 10
163.5
 20
-140.0
 30
0.0
  0
VERTEX
  8
0
 10
168.5
 20
-140.0
 30
0.0
  0
VERTEX
  8
0
 10
173.5
 20
-140.0
 30
0.0
  0
VERTEX
  8
0
 10
178.5
 20
-140.0
 30
0.0
  0
VERTEX
  8
0
 10
183.5
 20
-140.0
 30
0.0
  0
VERTEX
  8
0
 10
188.5
 20
-140.0
 30
0.0
  0
VERTEX
  8
0
 10
193.5
 20
-140.0
 30
0.0
  0
VERTEX
  8
0
 10
198.5
 20
-140.0
 30
0.0
  0
VERTEX
  8
0
 10
203.5
 20
-140.0
 30
0.0
  0
VERTEX
  8
0
 10
208.5
 20
-140.0
 30
0.0
  0
VERTEX
  8
0
 10
213.5
 20
-140.0
 30
0.0
  0
VERTEX
  8
0
 10
218.5
 20
-140.0
 30
0.0
  0
VERTEX
  8
0
 10
223.5
 20
-140.0
 30
0.0
  0
VERTEX
  8
0
 10
228.5
 20
-140.0
 30
0.0
  0
VERTEX
  8
0
 10
233.5
 20
-140.0
 30
0.0
  0
VERTEX
  8
0
 10
238.5
 20
-140.0
 30
0.0
  0
VERTEX
  8
0
 10
243.5
 20
-140.0
 30
0.0
  0
VERTEX
  8
0
 10
248.5
 20
-140.0
 30
0.0
  0
VERTEX
  8
0
 10
253.5
 20
-140.0
 30
0.0
  0
VERTEX
  8
0
 10
258.5
 20
-140.0
 30
0.0
  0
VERTEX
  8
0
 10
263.5
 20
-140.0
 30
0.0
  0
SEQEND
  8
0
  0
POLYLINE
  8
0
 62
0
 70
1
 66
1
 10
0.0
 20
0.0
 30
0.0
  0
VERTEX
  8
0
 10
224.5
 20
-120.5
 30
0.0
  0
VERTEX
  8
0
 10
223.0
 20
-122.0
 30
0.0
  0
VERTEX
  8
0
 10
221.5
 20
-120.5
 30
0.0
  0
VERTEX
  8
0
 10
223.0
 20
-119.0
 30
0.0
  0
SEQEND
  8
0
  0
POLYLINE
  8
0
 62
0
 70
1
 66
1
 10
0.0
 20
0.0
 30
0.0
  0
VERTEX
  8
0
 10
255.5
 20
-120.5
 30
0.0
  0
VERTEX
  8
0
 10
254.0
 20
-122.0
 30
0.0
  0
VERTEX
  8
0
 10
252.5
 20
-120.5
 30
0.0
  0
VERTEX
  8
0
 10
254.0
 20
-119.0
 30
0.0
  0
SEQEND
  8
0
  0
POLYLINE
  8
0
 62
0
 70
1
 66
1
 10
0.0
 20
0.0
 30
0.0
  0
VERTEX
  8
0
 10
166.21210000000002
 20
-113.72500000000001
 30
0.0
  0
VERTEX
  8
0
 10
163.61210000000003
 20
-116.325
 30
0.0
  0
VERTEX
  8
0
 10
161.01210000000003
 20
-113.72500000000001
 30
0.0
  0
VERTEX
  8
0
 10
163.61210000000003
 20
-111.125
 30
0.0
  0
SEQEND
  8
0
  0
POLYLINE
  8
0
 62
0
 70
1
 66
1
 10
0.0
 20
0.0
 30
0.0
  0
VERTEX
  8
0
 10
135.9879
 20
-113.72500000000001
 30
0.0
  0
VERTEX
  8
0
 10
133.3879
 20
-116.325
 30
0.0
  0
VERTEX
  8
0
 10
130.7879
 20
-113.72500000000001
 30
0.0
  0
VERTEX
  8
0
 10
133.3879
 20
-111.125
 30
0.0
  0
SEQEND
  8
0
  0
POLYLINE
  8
0
 62
0
 70
1
 66
1
 10
0.0
 20
0.0
 30
0.0
  0
VERTEX
  8
0
 10
224.5
 20
-89.5
 30
0.0
  0
VERTEX
  8
0
 10
223.0
 20
-91.0
 30
0.0
  0
VERTEX
  8
0
 10
221.5
 20
-89.5
 30
0.0
  0
VERTEX
  8
0
 10
223.0
 20
-88.0
 30
0.0
  0
SEQEND
  8
0
  0
POLYLINE
  8
0
 62
0
 70
1
 66
1
 10
0.0
 20
0.0
 30
0.0
  0
VERTEX
  8
0
 10
151.1
 20
-87.55000000000001
 30
0.0
  0
VERTEX
  8
0
 10
148.5
 20
-90.15
 30
0.0
  0
VERTEX
  8
0
 10
145.9
 20
-87.55000000000001
 30
0.0
  0
VERTEX
  8
0
 10
148.5
 20
-84.95
 30
0.0
  0
SEQEND
  8
0
  0
POLYLINE
  8
0
 62
0
 70
1
 66
1
 10
0.0
 20
0.0
 30
0.0
  0
VERTEX
  8
0
 10
257.5
 20
-77.0
 30
0.0
  0
VERTEX
  8
0
 10
256.328375
 20
-79.8284125
 30
0.0
  0
VERTEX
  8
0
 10
253.5
 20
-81.0
 30
0.0
  0
VERTEX
  8
0
 10
250.671625
 20
-79.8284125
 30
0.0
  0
VERTEX
  8
0
 10
249.5
 20
-77.0
 30
0.0
  0
VERTEX
  8
0
 10
250.671625
 20
-74.1715875
 30
0.0
  0
VERTEX
  8
0
 10
253.5
 20
-73.0
 30
0.0
  0
VERTEX
  8
0
 10
256.328375
 20
-74.1715875
 30
0.0
  0
SEQEND
  8
0
  0
POLYLINE
  8
0
 62
0
 70
1
 66
1
 10
0.0
 20
0.0
 30
0.0
  0
VERTEX
  8
0
 10
47.5
 20
-133.0
 30
0.0
  0
VERTEX
  8
0
 10
46.328375
 20
-135.8284125
 30
0.0
  0
VERTEX
  8
0
 10
43.5
 20
-137.0
 30
0.0
  0
VERTEX
  8
0
 10
40.671625000000006
 20
-135.8284125
 30
0.0
  0
VERTEX
  8
0
 10
39.5
 20
-133.0
 30
0.0
  0
VERTEX
  8
0
 10
40.671625000000006
 20
-130.17158750000002
 30
0.0
  0
VERTEX
  8
0
 10
43.5
 20
-129.0
 30
0.0
  0
VERTEX
  8
0
 10
46.328375
 20
-130.17158750000002
 30
0.0
  0
SEQEND
  8
0
  0
POLYLINE
  8
0
 62
0
 70
1
 66
1
 10
0.0
 20
0.0
 30
0.0
  0
VERTEX
  8
0
 10
257.5
 20
-133.0
 30
0.0
  0
VERTEX
  8
0
 10
256.328375
 20
-135.8284125
 30
0.0
  0
VERTEX
  8
0
 10
253.5
 20
-137.0
 30
0.0
  0
VERTEX
  8
0
 10
250.671625
 20
-135.8284125
 30
0.0
  0
VERTEX
  8
0
 10
249.5
 20
-133.0
 30
0.0
  0
VERTEX
  8
0
 10
250.671625
 20
-130.17158750000002
 30
0.0
  0
VERTEX
  8
0
 10
253.5
 20
-129.0
 30
0.0
  0
VERTEX
  8
0
 10
256.328375
 20
-130.17158750000002
 30
0.0
  0
SEQEND
  8
0
  0
POLYLINE
  8
0
 62
0
 70
1
 66
1
 10
0.0
 20
0.0
 30
0.0
  0
VERTEX
  8
0
 10
47.5
 20
-77.0
 30
0.0
  0
VERTEX
  8
0
 10
46.328375
 20
-79.8284125
 30
0.0
  0
VERTEX
  8
0
 10
43.5
 20
-81.0
 30
0.0
  0
VERTEX
  8
0
 10
40.671625000000006
 20
-79.8284125
 30
0.0
  0
VERTEX
  8
0
 10
39.5
 20
-77.0
 30
0.0
  0
VERTEX
  8
0
 10
40.671625000000006
 20
-74.1715875
 30
0.0
  0
VERTEX
  8
0
 10
43.5
 20
-73.0
 30
0.0
  0
VERTEX
  8
0
 10
46.328375
 20
-74.1715875
 30
0.0
  0
SEQEND
  8
0
  0
POLYLINE
  8
0
 62
0
 70
1
 66
1
 10
0.0
 20
0.0
 30
0.0
  0
VERTEX
  8
0
 10
161.0
 20
-105.0
 30
0.0
  0
VERTEX
  8
0
 10
160.017688125
 20
-109.865564375
 30
0.0
  0
VERTEX
  8
0
 10
157.338835
 20
-113.838835
 30
0.0
  0
VERTEX
  8
0
 10
153.365564375
 20
-116.517688125
 30
0.0
  0
VERTEX
  8
0
 10
148.5
 20
-117.5
 30
0.0
  0
VERTEX
  8
0
 10
143.634435625
 20
-116.517688125
 30
0.0
  0
VERTEX
  8
0
 10
139.661165
 20
-113.838835
 30
0.0
  0
VERTEX
  8
0
 10
136.982311875
 20
-109.865564375
 30
0.0
  0
VERTEX
  8
0
 10
136.0
 20
-105.0
 30
0.0
  0
VERTEX
  8
0
 10
136.982311875
 20
-100.134435625
 30
0.0
  0
VERTEX
  8
0
 10
139.661165
 20
-96.161165
 30
0.0
  0
VERTEX
  8
0
 10
143.634435625
 20
-93.482311875
 30
0.0
  0
VERTEX
  8
0
 10
148.5
 20
-92.5
 30
0.0
  0
VERTEX
  8
0
 10
153.365564375
 20
-93.482311875
 30
0.0
  0
VERTEX
  8
0
 10
157.338835
 20
-96.161165
 30
0.0
  0
VERTEX
  8
0
 10
160.017688125
 20
-100.134435625
 30
0.0
  0
SEQEND
  8
0
  0
POLYLINE
  8
0
 62
0
 70
1
 66
1
 10
0.0
 20
0.0
 30
0.0
  0
VERTEX
  8
0
 10
253.5
 20
-105.0
 30
0.0
  0
VERTEX
  8
0
 10
252.7352928
 20
-109.74115968
 30
0.0
  0
VERTEX
  8
0
 10
250.6058784
 20
-113.85880464
 30
0.0
  0
VERTEX
  8
0
 10
247.3588176
 20
-117.10586976
 30
0.0
  0
VERTEX
  8
0
 10
243.2411712
 20
-119.23528992
 30
0.0
  0
VERTEX
  8
0
 10
238.5
 20
-120.0
 30
0.0
  0
VERTEX
  8
0
 10
233.7588288
 20
-119.23528992
 30
0.0
  0
VERTEX
  8
0
 10
229.64118240000002
 20
-117.10586975999999
 30
0.0
  0
VERTEX
  8
0
 10
226.3941216
 20
-113.85880463999999
 30
0.0
  0
VERTEX
  8
0
 10
224.2647072
 20
-109.74115968
 30
0.0
  0
VERTEX
  8
0
 10
223.5
 20
-105.0
 30
0.0
  0
VERTEX
  8
0
 10
224.2647072
 20
-100.25884032
 30
0.0
  0
VERTEX
  8
0
 10
226.3941216
 20
-96.14119536
 30
0.0
  0
VERTEX
  8
0
 10
229.64118240000002
 20
-92.89413024
 30
0.0
  0
VERTEX
  8
0
 10
233.7588288
 20
-90.76471008
 30
0.0
  0
VERTEX
  8
0
 10
238.5
 20
-90.0
 30
0.0
  0
VERTEX
  8
0
 10
243.2411712
 20
-90.76471008
 30
0.0
  0
VERTEX
  8
0
 10
247.3588176
 20
-92.89413024000001
 30
0.0
  0
VERTEX
  8
0
 10
250.6058784
 20
-96.14119536000001
 30
0.0
  0
VERTEX
  8
0
 10
252.7352928
 20
-100.25884032
 30
0.0
  0
SEQEND
  8
0
  0
POLYLINE
  8
0
 62
0
 70
1
 66
1
 10
0.0
 20
0.0
 30
0.0
  0
VERTEX
  8
0
 10
263.5
 20
-140.0
 30
0.0
  0
VERTEX
  8
0
 10
263.5
 20
-135.0
 30
0.0
  0
VERTEX
  8
0
 10
263.5
 20
-130.0
 30
0.0
  0
VERTEX
  8
0
 10
263.5
 20
-125.0
 30
0.0
  0
VERTEX
  8
0
 10
263.5
 20
-120.0
 30
0.0
  0
VERTEX
  8
0
 10
263.5
 20
-115.0
 30
0.0
  0
VERTEX
  8
0
 10
263.5
 20
-110.0
 30
0.0
  0
VERTEX
  8
0
 10
263.5
 20
-105.0
 30
0.0
  0
VERTEX
  8
0
 10
263.5
 20
-100.0
 30
0.0
  0
VERTEX
  8
0
 10
263.5
 20
-95.0
 30
0.0
  0
VERTEX
  8
0
 10
263.5
 20
-90.0
 30
0.0
  0
VERTEX
  8
0
 10
263.5
 20
-85.0
 30
0.0
  0
VERTEX
  8
0
 10
263.5
 20
-80.0
 30
0.0
  0
VERTEX
  8
0
 10
263.5
 20
-75.0
 30
0.0
  0
VERTEX
  8
0
 10
263.5
 20
-70.0
 30
0.0
  0
VERTEX
  8
0
 10
258.5
 20
-70.0
 30
0.0
  0
VERTEX
  8
0
 10
253.5
 20
-70.0
 30
0.0
  0
VERTEX
  8
0
 10
248.5
 20
-70.0
 30
0.0
  0
VERTEX
  8
0
 10
243.5
 20
-70.0
 30
0.0
  0
VERTEX
  8
0
 10
238.5
 20
-70.0
 30
0.0
  0
VERTEX
  8
0
 10
233.5
 20
-70.0
 30
0.0
  0
VERTEX
  8
0
 10
228.5
 20
-70.0
 30
0.0
  0
VERTEX
  8
0
 10
223.5
 20
-70.0
 30
0.0
  0
VERTEX
  8
0
 10
218.5
 20
-70.0
 30
0.0
  0
VERTEX
  8
0
 10
213.5
 20
-70.0
 30
0.0
  0
VERTEX
  8
0
 10
208.5
 20
-70.0
 30
0.0
  0
VERTEX
  8
0
 10
203.5
 20
-70.0
 30
0.0
  0
VERTEX
  8
0
 10
198.5
 20
-70.0
 30
0.0
  0
VERTEX
  8
0
 10
193.5
 20
-70.0
 30
0.0
  0
VERTEX
  8
0
 10
188.5
 20
-70.0
 30
0.0
  0
VERTEX
  8
0
 10
183.5
 20
-70.0
 30
0.0
  0
VERTEX
  8
0
 10
178.5
 20
-70.0
 30
0.0
  0
VERTEX
  8
0
 10
173.5
 20
-70.0
 30
0.0
  0
VERTEX
  8
0
 10
168.5
 20
-70.0
 30
0.0
  0
VERTEX
  8
0
 10
163.5
 20
-70.0
 30
0.0
  0
VERTEX
  8
0
 10
158.5
 20
-70.0
 30
0.0
  0
VERTEX
  8
0
 10
153.5
 20
-70.0
 30
0.0
  0
VERTEX
  8
0
 10
148.5
 20
-70.0
 30
0.0
  0
VERTEX
  8
0
 10
143.5
 20
-70.0
 30
0.0
  0
VERTEX
  8
0
 10
138.5
 20
-70.0
 30
0.0
  0
VERTEX
  8
0
 10
133.5
 20
-70.0
 30
0.0
  0
VERTEX
  8
0
 10
128.5
 20
-70.0
 30
0.0
  0
VERTEX
  8
0
 10
123.5
 20
-70.0
 30
0.0
  0
VERTEX
  8
0
 10
118.5
 20
-70.0
 30
0.0
  0
VERTEX
  8
0
 10
113.5
 20
-70.0
 30
0.0
  0
VERTEX
  8
0
 10
108.5
 20
-70.0
 30
0.0
  0
VERTEX
  8
0
 10
103.5
 20
-70.0
 30
0.0
  0
VERTEX
  8
0
 10
98.5
 20
-70.0
 30
0.0
  0
VERTEX
  8
0
 10
93.5
 20
-70.0
 30
0.0
  0
VERTEX
  8
0
 10
88.5
 20
-70.0
 30
0.0
  0
VERTEX
  8
0
 10
83.5
 20
-70.0
 30
0.0
  0
VERTEX
  8
0
 10
78.5
 20
-70.0
 30
0.0
  0
VERTEX
  8
0
 10
73.5
 20
-70.0
 30
0.0
  0
VERTEX
  8
0
 10
68.5
 20
-70.0
 30
0.0
  0
VERTEX
  8
0
 10
63.5
 20
-70.0
 30
0.0
  0
VERTEX
  8
0
 10
58.5
 20
-70.0
 30
0.0
  0
VERTEX
  8
0
 10
53.5
 20
-70.0
 30
0.0
  0
VERTEX
  8
0
 10
48.5
 20
-70.0
 30
0.0
  0
VERTEX
  8
0
 10
43.5
 20
-70.0
 30
0.0
  0
VERTEX
  8
0
 10
38.5
 20
-70.0
 30
0.0
  0
VERTEX
  8
0
 10
33.5
 20
-70.0
 30
0.0
  0
VERTEX
  8
0
 10
33.5
 20
-75.0
 30
0.0
  0
VERTEX
  8
0
 10
33.5
 20
-80.0
 30
0.0
  0
VERTEX
  8
0
 10
33.5
 20
-85.0
 30
0.0
  0
VERTEX
  8
0
 10
33.5
 20
-90.0
 30
0.0
  0
VERTEX
  8
0
 10
33.5
 20
-95.0
 30
0.0
  0
VERTEX
  8
0
 10
33.5
 20
-100.0
 30
0.0
  0
VERTEX
  8
0
 10
33.5
 20
-105.0
 30
0.0
  0
VERTEX
  8
0
 10
33.5
 20
-110.0
 30
0.0
  0
VERTEX
  8
0
 10
33.5
 20
-115.0
 30
0.0
  0
VERTEX
  8
0
 10
33.5
 20
-120.0
 30
0.0
  0
VERTEX
  8
0
 10
33.5
 20
-125.0
 30
0.0
  0
VERTEX
  8
0
 10
33.5
 20
-130.0
 30
0.0
  0
VERTEX
  8
0
 10
33.5
 20
-135.0
 30
0.0
  0
VERTEX
  8
0
 10
33.5
 20
-140.0
 30
0.0
  0
VERTEX
  8
0
 10
38.5
 20
-140.0
 30
0.0
  0
VERTEX
  8
0
 10
43.5
 20
-140.0
 30
0.0
  0
VERTEX
  8
0
 10
48.5
 20
-140.0
 30
0.0
  0
VERTEX
  8
0
 10
53.5
 20
-140.0
 30
0.0
  0
VERTEX
  8
0
 10
58.5
 20
-140.0
 30
0.0
  0
VERTEX
  8
0
 10
63.5
 20
-140.0
 30
0.0
  0
VERTEX
  8
0
 10
68.5
 20
-140.0
 30
0.0
  0
VERTEX
  8
0
 10
73.5
 20
-140.0
 30
0.0
  0
VERTEX
  8
0
 10
78.5
 20
-140.0
 30
0.0
  0
VERTEX
  8
0
 10
83.5
 20
-140.0
 30
0.0
  0
VERTEX
  8
0
 10
88.5
 20
-140.0
 30
0.0
  0
VERTEX
  8
0
 10
93.5
 20
-140.0
 30
0.0
  0
VERTEX
  8
0
 10
98.5
 20
-140.0
 30
0.0
  0
VERTEX
  8
0
 10
103.5
 20
-140.0
 30
0.0
  0
VERTEX
  8
0
 10
108.5
 20
-140.0
 30
0.0
  0
VERTEX
  8
0
 10
113.5
 20
-140.0
 30
0.0
  0
VERTEX
  8
0
 10
118.5
 20
-140.0
 30
0.0
  0
VERTEX
  8
0
 10
123.5
 20
-140.0
 30
0.0
  0
VERTEX
  8
0
 10
128.5
 20
-140.0
 30
0.0
  0
VERTEX
  8
0
 10
133.5
 20
-140.0
 30
0.0
  0
VERTEX
  8
0
 10
138.5
 20
-140.0
 30
0.0
  0
VERTEX
  8
0
 10
143.5
 20
-140.0
 30
0.0
  0
VERTEX
  8
0
 10
148.5
 20
-140.0
 30
0.0
  0
VERTEX
  8
0
 10
153.5
 20
-140.0
 30
0.0
  0
VERTEX
  8
0
 10
158.5
 20
-140.0
 30
0.0
  0
VERTEX
  8
0
 10
163.5
 20
-140.0
 30
0.0
  0
VERTEX
  8
0
 10
168.5
 20
-140.0
 30
0.0
  0
VERTEX
  8
0
 10
173.5
 20
-140.0
 30
0.0
  0
VERTEX
  8
0
 10
178.5
 20
-140.0
 30
0.0
  0
VERTEX
  8
0
 10
183.5
 20
-140.0
 30
0.0
  0
VERTEX
  8
0
 10
188.5
 20
-140.0
 30
0.0
  0
VERTEX
  8
0
 10
193.5
 20
-140.0
 30
0.0
  0
VERTEX
  8
0
 10
198.5
 20
-140.0
 30
0.0
  0
VERTEX
  8
0
 10
203.5
 20
-140.0
 30
0.0
  0
VERTEX
  8
0
 10
208.5
 20
-140.0
 30
0.0
  0
VERTEX
  8
0
 10
213.5
 20
-140.0
 30
0.0
  0
VERTEX
  8
0
 10
218.5
 20
-140.0
 30
0.0
  0
VERTEX
  8
0
 10
223.5
 20
-140.0
 30
0.0
  0
VERTEX
  8
0
 10
228.5
 20
-140.0
 30
0.0
  0
VERTEX
  8
0
 10
233.5
 20
-140.0
 30
0.0
  0
VERTEX
  8
0
 10
238.5
 20
-140.0
 30
0.0
  0
VERTEX
  8
0
 10
243.5
 20
-140.0
 30
0.0
  0
VERTEX
  8
0
 10
248.5
 20
-140.0
 30
0.0
  0
VERTEX
  8
0
 10
253.5
 20
-140.0
 30
0.0
  0
VERTEX
  8
0
 10
258.5
 20
-140.0
 30
0.0
  0
SEQEND
  8
0
  0
POLYLINE
  8
0
 62
0
 70
0
 66
1
 10
0.0
 20
0.0
 30
0.0
  0
VERTEX
  8
0
 10
47.7
 20
-133.0
 30
0.0
  0
VERTEX
  8
0
 10
43.5
 20
-133.0
 30
0.0
  0
VERTEX
  8
0
 10
39.300000000000004
 20
-133.0
 30
0.0
  0
SEQEND
  8
0
  0
POLYLINE
  8
0
 62
0
 70
0
 66
1
 10
0.0
 20
0.0
 30
0.0
  0
VERTEX
  8
0
 10
43.5
 20
-137.20000000000002
 30
0.0
  0
VERTEX
  8
0
 10
43.5
 20
-133.0
 30
0.0
  0
VERTEX
  8
0
 10
43.5
 20
-128.8
 30
0.0
  0
SEQEND
  8
0
  0
POLYLINE
  8
0
 62
0
 70
0
 66
1
 10
0.0
 20
0.0
 30
0.0
  0
VERTEX
  8
0
 10
257.7
 20
-133.0
 30
0.0
  0
VERTEX
  8
0
 10
253.5
 20
-133.0
 30
0.0
  0
VERTEX
  8
0
 10
249.3
 20
-133.0
 30
0.0
  0
SEQEND
  8
0
  0
POLYLINE
  8
0
 62
0
 70
0
 66
1
 10
0.0
 20
0.0
 30
0.0
  0
VERTEX
  8
0
 10
253.5
 20
-137.20000000000002
 30
0.0
  0
VERTEX
  8
0
 10
253.5
 20
-133.0
 30
0.0
  0
VERTEX
  8
0
 10
253.5
 20
-128.8
 30
0.0
  0
SEQEND
  8
0
  0
ENDSEC
  0
EOF
