999
FreeCAD v0.18.4 
  0
SECTION
  2
HEADER
  9
$ACADVER
  1
AC1014
  9
$ACADMAINTVER
 70
     9
  9
$DWGCODEPAGE
  3
ANSI_1252
  9
$TEXTSTYLE
  7
STANDARD
  9
$DIMSTYLE
  2
STANDARD
  9
$DIMTXSTY
  7
STANDARD
  9
$CMLSTYLE
  2
STANDARD
  9
$HANDSEED
  5
FFF
  0
ENDSEC
  0
SECTION
  2
CLASSES
  0
CLASS
  1
ACDBDICTIONARYWDFLT
  2
AcDbDictionaryWithDefault
  3
ObjectDBX Classes
 90
        0
280
     0
281
     0
  0
CLASS
  1
XRECORD
  2
AcDbXrecord
  3
ObjectDBX Classes
 90
        0
280
     0
281
     0
  0
CLASS
  1
LWPOLYLINE
  2
AcDbPolyline
  3
ObjectDBX Classes
 90
        0
280
     0
281
     1
  0
ENDSEC
  0
SECTION
  2
TABLES
  0
TABLE
  2
VPORT
  5
20
330
0
100
AcDbSymbolTable
 70
     1
  0
VPORT
  5
21
330
20
100
AcDbSymbolTableRecord
100
AcDbViewportTableRecord
  2
*ACTIVE
 70
     0
  0
ENDTAB
  0
TABLE
  2
LTYPE
  5
22
330
0
100
AcDbSymbolTable
 70
     1
  0
LTYPE
  5
23
330
21
100
AcDbSymbolTableRecord
100
AcDbLinetypeTableRecord
  2
BYBLOCK
 70
     0
  3

 72
    65
 73
     0
 40
0.0
  0
LTYPE
  5
24
330
21
100
AcDbSymbolTableRecord
100
AcDbLinetypeTableRecord
  2
BYLAYER
 70
     0
  3

 72
    65
 73
     0
 40
0.0
  0
LTYPE
  5
25
330
21
100
AcDbSymbolTableRecord
100
AcDbLinetypeTableRecord
  2
CONTINUOUS
 70
     0
  3
Solid line
 72
    65
 73
     0
 40
0.0
  0
ENDTAB
  0
TABLE
  2
LAYER
  5
31
330
0
100
AcDbSymbolTable
 70
2
  0
LAYER
  5
32
330
31
100
AcDbSymbolTableRecord
100
AcDbLayerTableRecord
  2
0
 70
   0
 62
   7
  6
CONTINUOUS
  0
LAYER
  5
33
330
31
100
AcDbSymbolTableRecord
100
AcDbLayerTableRecord
  2
View
 70
    0
 62
    7
  6
CONTINUOUS
  0
ENDTAB
  0
TABLE
  2
STYLE
  5
60
330
0
100
AcDbSymbolTable
 70
     2
  0
STYLE
  5
61
330
60
100
AcDbSymbolTableRecord
100
AcDbTextStyleTableRecord
  2
STANDARD
 70
     0
 40
0.0
 41
1.0
 50
0.0
 71
     0
 42
2.5
  3
arial.ttf
  4

  0
STYLE
  5
62
330
60
100
AcDbSymbolTableRecord
100
AcDbTextStyleTableRecord
  2
ANNOTATIVE
 70
     0
 40
0.0
 41
1.0
 50
0.0
 71
     0
 42
2.5
  3
arial.ttf
  4

  0
ENDTAB
  0
TABLE
  2
VIEW
  5
63
330
0
100
AcDbSymbolTable
 70
     0
  0
ENDTAB
  0
TABLE
  2
UCS
  5
64
330
0
100
AcDbSymbolTable
 70
     0
  0
ENDTAB
  0
TABLE
  2
APPID
  5
65
330
0
100
AcDbSymbolTable
 70
     2
  0
APPID
  5
66
330
65
100
AcDbSymbolTableRecord
100
AcDbRegAppTableRecord
  2
ACAD
 70
     0
  0
APPID
  5
67
330
65
100
AcDbSymbolTableRecord
100
AcDbRegAppTableRecord
  2
ACADANNOTATIVE
 70
     0
  0
ENDTAB
  0
TABLE
  2
DIMSTYLE
  5
68
330
0
100
AcDbSymbolTable
 70
     2
  0
DIMSTYLE
105
69
330
68
100
AcDbSymbolTableRecord
100
AcDbDimStyleTableRecord
  2
STANDARD
 70
     0
  3

  4

  5

  6

  7

 40
0.0
 41
2.5
 42
0.625
 43
3.75
 44
1.25
 45
0.0
 46
0.0
 47
0.0
 48
0.0
140
2.5
141
2.5
142
0.0
143
0.03937007874016
144
1.0
145
0.0
146
1.0
147
0.625
 71
     0
 72
     0
 73
     0
 74
     0
 75
     0
 76
     0
 77
     1
 78
     8
170
     0
171
     3
172
     1
173
     0
174
     0
175
     0
176
     0
177
     0
178
     0
270
     2
271
     2
272
     2
273
     2
274
     3
340
61
275
     0
280
     0
281
     0
282
     0
283
     0
284
     8
285
     0
286
     0
287
     3
288
     0
  0
ENDTAB
  0
TABLE
  2
BLOCK_RECORD
  5
111
330
0
100
AcDbSymbolTable
  70
5
  0
BLOCK_RECORD
  5
112
330
111
100
AcDbSymbolTableRecord
100
AcDbBlockTableRecord
  2
*MODEL_SPACE
  0
BLOCK_RECORD
  5
113
330
111
100
AcDbSymbolTableRecord
100
AcDbBlockTableRecord
  2
*PAPER_SPACE
  0
ENDTAB
  0
ENDSEC
  0
SECTION
  2
BLOCKS
  0
BLOCK
  5
211
330
112
100
AcDbEntity
  8
0
100
AcDbBlockBegin
  2
*MODEL_SPACE
 70
   0
 10
0
 20
0
 30
0
  3
*MODEL_SPACE
  1
 
  0
ENDBLK
  5
212
330
112
100
AcDbEntity
  8
0
100
AcDbBlockEnd
  0
BLOCK
  5
213
330
113
100
AcDbEntity
 67
1
  8
0
100
AcDbBlockBegin
  2
*PAPER_SPACE
 70
   0
 10
0
 20
0
 30
0
  3
*PAPER_SPACE
  1
 
  0
ENDBLK
  5
214
330
113
100
AcDbEntity
 67
    1
  8
0
100
AcDbBlockEnd
  0
ENDSEC
  0
SECTION
  2
ENTITIES
  0
ELLIPSE
  5
301
330
112
100
AcDbEntity
  8
View
100
AcDbEllipse
 10
164.872
 20
74.1417
 30
0
 11
24
 21
2.23025e-08
 31
0
 40
1
 41
-1.50919
 42
-4.774
  0
LINE
  5
302
330
112
100
AcDbEntity
  8
View
100
AcDbLine
 10
68.3499
 20
104.142
 30
0
 11
166.35
 21
98.0961
 31
0
  0
LINE
  5
303
330
112
100
AcDbEntity
  8
View
100
AcDbLine
 10
68.3499
 20
44.1416
 30
0
 11
166.35
 21
50.1872
 31
0
  0
LINE
  5
304
330
112
100
AcDbEntity
  8
View
100
AcDbLine
 10
68.3499
 20
44.1416
 30
0
 11
68.3499
 21
104.142
 31
0
  0
ELLIPSE
  5
305
330
112
100
AcDbEntity
  8
View
100
AcDbEllipse
 10
168.745
 20
56.1417
 30
0
 11
-2.75
 21
-5.71641e-10
 31
0
 40
1
 41
0
 42
6.28318
  0
ELLIPSE
  5
306
330
112
100
AcDbEntity
  8
View
100
AcDbEllipse
 10
168.35
 20
74.3903
 30
0
 11
14
 21
1.30098e-08
 31
0
 40
1
 41
0
 42
6.28318
  0
ELLIPSE
  5
307
330
112
100
AcDbEntity
  8
View
100
AcDbEllipse
 10
168.745
 20
92.1417
 30
0
 11
-2.75
 21
-5.71641e-10
 31
0
 40
1
 41
0
 42
6.28318
  0
ARC
  5
308
330
112
100
AcDbEntity
  8
View
100
AcDbCircle
 10
87.601
 20
135.859
 30
0
 40
24
100
AcDbArc
 50
93.53
 51
-93.53
  0
LINE
  5
309
330
112
100
AcDbEntity
  8
View
100
AcDbLine
 10
184.123
 20
165.858
 30
0
 11
86.1233
 21
159.813
 31
0
  0
LINE
  5
30A
330
112
100
AcDbEntity
  8
View
100
AcDbLine
 10
184.123
 20
105.858
 30
0
 11
86.1233
 21
111.904
 31
0
  0
LINE
  5
30B
330
112
100
AcDbEntity
  8
View
100
AcDbLine
 10
184.123
 20
105.858
 30
0
 11
184.123
 21
165.858
 31
0
  0
CIRCLE
  5
30C
330
112
100
AcDbEntity
  8
View
100
AcDbCircle
 10
178.623
 20
151.359
 40
1.65
  0
CIRCLE
  5
30D
330
112
100
AcDbEntity
  8
View
100
AcDbCircle
 10
147.623
 20
151.359
 40
1.65
  0
CIRCLE
  5
30E
330
112
100
AcDbEntity
  8
View
100
AcDbCircle
 10
84.1233
 20
136.107
 40
13.75
  0
CIRCLE
  5
30F
330
112
100
AcDbEntity
  8
View
100
AcDbCircle
 10
83.7279
 20
153.859
 40
2.75
  0
CIRCLE
  5
310
330
112
100
AcDbEntity
  8
View
100
AcDbCircle
 10
83.7279
 20
117.859
 40
2.75
  0
CIRCLE
  5
311
330
112
100
AcDbEntity
  8
View
100
AcDbCircle
 10
178.623
 20
120.359
 40
1.65
  0
CIRCLE
  5
312
330
112
100
AcDbEntity
  8
View
100
AcDbCircle
 10
163.123
 20
135.859
 40
15
  0
CIRCLE
  5
313
330
112
100
AcDbEntity
  8
View
100
AcDbCircle
 10
147.623
 20
120.359
 40
1.65
  0
ARC
  5
314
330
112
100
AcDbEntity
  8
View
100
AcDbCircle
 10
213.214
 20
130.844
 30
0
 40
20
100
AcDbArc
 50
180
 51
0
  0
LINE
  5
315
330
112
100
AcDbEntity
  8
View
100
AcDbLine
 10
193.214
 20
130.844
 30
0
 11
193.214
 21
165.844
 31
0
  0
LINE
  5
316
330
112
100
AcDbEntity
  8
View
100
AcDbLine
 10
233.214
 20
165.844
 30
0
 11
233.214
 21
130.844
 31
0
  0
LINE
  5
317
330
112
100
AcDbEntity
  8
View
100
AcDbLine
 10
193.214
 20
165.844
 30
0
 11
233.214
 21
165.844
 31
0
  0
CIRCLE
  5
318
330
112
100
AcDbEntity
  8
View
100
AcDbCircle
 10
225.214
 20
130.844
 40
2.2
  0
CIRCLE
  5
319
330
112
100
AcDbEntity
  8
View
100
AcDbCircle
 10
213.214
 20
130.844
 40
4
  0
CIRCLE
  5
31A
330
112
100
AcDbEntity
  8
View
100
AcDbCircle
 10
213.214
 20
118.844
 40
2.2
  0
CIRCLE
  5
31B
330
112
100
AcDbEntity
  8
View
100
AcDbCircle
 10
213.214
 20
142.844
 40
2.2
  0
CIRCLE
  5
31C
330
112
100
AcDbEntity
  8
View
100
AcDbCircle
 10
201.214
 20
130.844
 40
2.2
  0
ARC
  5
31D
330
112
100
AcDbEntity
  8
View
100
AcDbCircle
 10
213.399
 20
81.7605
 30
0
 40
20
100
AcDbArc
 50
0
 51
180
  0
LINE
  5
31E
330
112
100
AcDbEntity
  8
View
100
AcDbLine
 10
233.399
 20
81.7605
 30
0
 11
233.399
 21
46.7605
 31
0
  0
LINE
  5
31F
330
112
100
AcDbEntity
  8
View
100
AcDbLine
 10
193.399
 20
46.7605
 30
0
 11
193.399
 21
81.7605
 31
0
  0
LINE
  5
320
330
112
100
AcDbEntity
  8
View
100
AcDbLine
 10
233.399
 20
46.7605
 30
0
 11
193.399
 21
46.7605
 31
0
  0
CIRCLE
  5
321
330
112
100
AcDbEntity
  8
View
100
AcDbCircle
 10
201.399
 20
81.7599
 40
2.2
  0
CIRCLE
  5
322
330
112
100
AcDbEntity
  8
View
100
AcDbCircle
 10
213.399
 20
81.7599
 40
4
  0
CIRCLE
  5
323
330
112
100
AcDbEntity
  8
View
100
AcDbCircle
 10
213.399
 20
93.7599
 40
2.2
  0
CIRCLE
  5
324
330
112
100
AcDbEntity
  8
View
100
AcDbCircle
 10
213.399
 20
69.7599
 40
2.2
  0
CIRCLE
  5
325
330
112
100
AcDbEntity
  8
View
100
AcDbCircle
 10
225.399
 20
81.7599
 40
2.2
  0
ENDSEC
  0
SECTION
  2
OBJECTS
  0
DICTIONARY
  5
500
330
0
100
AcDbDictionary
  3
ACAD_GROUP
350
501
  0
DICTIONARY
  5
501
330
500
100
AcDbDictionary
  0
ENDSEC
  0
EOF